M48
;DRILL file {KiCad (5.0.2-5-10.14)} date Monday, 09 September 2019 at 23:26:58
;FORMAT={-:-/ absolute / inch / decimal}
FMAT,2
INCH,TZ
T1C0.0157
T2C0.0300
T3C0.0320
T4C0.0394
T5C0.0409
T6C0.0433
T7C0.0579
T8C0.0689
T9C0.1200
T10C0.1570
%
G90
G05
T1
X3.0012Y-4.8953
X3.1634Y-5.2843
X3.2681Y-4.9697
X3.4846Y-5.2386
X3.5449Y-4.0084
X3.5669Y-5.3602
X3.9047Y-4.9563
X3.9126Y-5.9783
X3.9343Y-5.278
X4.0787Y-4.8465
X4.1965Y-5.2476
X4.2831Y-4.8681
X4.2941Y-5.9976
X4.3205Y-5.2476
X4.3366Y-5.1268
X4.3374Y-4.5594
X4.4457Y-4.963
X4.6469Y-5.9689
X4.9083Y-4.515
X4.9122Y-4.7256
X4.9697Y-5.3815
X4.9999Y-4.5125
X5.0165Y-4.689
X5.0425Y-4.4563
X5.072Y-5.9882
X5.1417Y-4.8346
X5.4091Y-5.9937
X5.4638Y-4.4909
X5.5736Y-4.672
X5.781Y-4.5125
X5.7831Y-5.3055
X5.7953Y-4.4563
X5.8114Y-5.9783
X6.1075Y-6.0075
X6.3626Y-4.4909
X6.4961Y-5.9795
X6.5079Y-5.4406
X6.5953Y-5.9913
X6.6173Y-5.3445
X6.7508Y-5.372
X6.9118Y-4.5035
X6.9382Y-6.0173
X7.0287Y-4.4134
X7.7012Y-4.4909
X7.9854Y-5.3642
X8.1Y-4.6354
X8.1213Y-6.0106
X8.4461Y-4.5008
X8.6996Y-4.4701
X8.6996Y-5.3748
X8.772Y-5.9929
X8.85Y-4.6134
X8.911Y-6.0744
X8.9213Y-4.8256
X9.0476Y-4.6366
X9.0701Y-6.1295
X9.1882Y-6.0232
X9.2252Y-5.3701
X9.5043Y-5.2524
X9.6Y-4.5177
T2
X10.0823Y-4.8937
X10.0823Y-5.1937
X3.7505Y-5.7233
X3.7505Y-6.0233
X9.0015Y-5.7243
X9.0015Y-6.0243
X3.3785Y-4.9463
X3.3785Y-5.2463
X8.625Y-4.9473
X8.625Y-5.2473
X5.6252Y-4.2114
X5.6252Y-4.5114
X8.2505Y-5.7243
X8.2505Y-6.0243
X5.9995Y-5.7233
X5.9995Y-6.0233
X3.375Y-4.1648
X3.375Y-4.4648
X6.3775Y-4.9473
X6.3775Y-5.2473
X9.3713Y-4.063
X9.3713Y-4.363
X4.0781Y-4.9473
X4.0781Y-5.2473
X5.579Y-4.9498
X5.579Y-5.2498
X7.1145Y-5.6533
X7.1145Y-5.9533
X9.3785Y-4.9463
X9.3785Y-5.2463
X4.05Y-4.1098
X4.05Y-4.4098
X7.125Y-4.9498
X7.125Y-5.2498
X4.9315Y-4.061
X4.9315Y-4.361
X5.2495Y-5.7243
X5.2495Y-6.0243
X7.8285Y-4.9498
X7.8285Y-5.2498
X6.3728Y-4.061
X6.3728Y-4.361
X10.078Y-4.0701
X10.078Y-4.3701
X4.4895Y-5.7233
X4.4895Y-6.0233
X4.554Y-5.4403
X4.854Y-5.4403
X9.6949Y-5.7146
X9.6949Y-6.0146
X7.125Y-4.072
X7.125Y-4.372
X7.8724Y-4.0717
X7.8724Y-4.3717
X8.626Y-4.063
X8.626Y-4.363
T3
X4.789Y-6.1429
X4.989Y-6.1429
X3.2634Y-6.1437
X3.4634Y-6.1437
X7.4283Y-5.4406
X7.6283Y-5.4406
X6.6441Y-5.4406
X6.8441Y-5.4406
X9.6543Y-4.6866
X9.8543Y-4.6866
X6.6587Y-6.1421
X6.8587Y-6.1421
X5.898Y-5.4406
X6.098Y-5.4406
X8.9102Y-5.4386
X9.1102Y-5.4386
X8.1614Y-5.4374
X8.3614Y-5.4374
X2.9177Y-5.4035
X3.1177Y-5.4035
X4.2232Y-5.4382
X4.4232Y-5.4382
X5.161Y-4.6835
X5.361Y-4.6835
X9.287Y-6.1441
X9.487Y-6.1441
X7.7882Y-6.1421
X7.9882Y-6.1421
X6.6626Y-4.689
X6.8626Y-4.689
X2.674Y-4.2858
X2.674Y-4.4858
X3.6705Y-5.4386
X3.8705Y-5.4386
X4.0402Y-6.1378
X4.2402Y-6.1378
X7.4024Y-4.689
X7.6024Y-4.689
X5.911Y-4.6854
X6.111Y-4.6854
X9.515Y-5.4386
X9.715Y-5.4386
X5.5287Y-6.1386
X5.7287Y-6.1386
X8.5402Y-6.1421
X8.7402Y-6.1421
X8.9138Y-4.6894
X9.1138Y-4.6894
X4.4138Y-4.6894
X4.6138Y-4.6894
X2.9157Y-4.6862
X3.1157Y-4.6862
X5.1622Y-5.4374
X5.3622Y-5.4374
X3.2862Y-4.6894
X3.4862Y-4.6894
X8.1606Y-4.689
X8.3606Y-4.689
T4
X3.7734Y-4.6816
X3.8734Y-4.6816
X3.9734Y-4.6816
T5
X3.325Y-6.0125
X3.425Y-6.0125
X4.45Y-4.5125
X4.55Y-4.5125
X7.825Y-6.0125
X7.925Y-6.0125
X5.95Y-5.2625
X6.05Y-5.2625
X6.7Y-6.0125
X6.8Y-6.0125
X8.95Y-5.2625
X9.05Y-5.2625
X6.7Y-4.5125
X6.8Y-4.5125
X5.575Y-6.0125
X5.675Y-6.0125
X9.7Y-4.5125
X9.8Y-4.5125
X5.2Y-5.2625
X5.3Y-5.2625
X9.7Y-5.2625
X9.8Y-5.2625
X5.95Y-4.5125
X6.05Y-4.5125
X4.825Y-6.0125
X4.925Y-6.0125
X8.95Y-4.5125
X9.05Y-4.5125
X4.45Y-5.2625
X4.55Y-5.2625
X4.075Y-6.0125
X4.175Y-6.0125
X3.7Y-4.5125
X3.8Y-4.5125
X8.575Y-6.0125
X8.675Y-6.0125
X8.2Y-4.5125
X8.3Y-4.5125
X3.7Y-5.2625
X3.8Y-5.2625
X6.7Y-5.2625
X6.8Y-5.2625
X8.2Y-5.2625
X8.3Y-5.2625
X7.45Y-4.5125
X7.55Y-4.5125
X2.95Y-5.2625
X3.05Y-5.2625
X9.325Y-6.0125
X9.425Y-6.0125
X7.45Y-5.2625
X7.55Y-5.2625
X2.95Y-4.5125
X3.05Y-4.5125
X5.2Y-4.5125
X5.3Y-4.5125
T6
X4.2Y-3.9969
X4.2Y-4.0969
X4.2Y-4.1969
X4.2Y-4.2969
X4.2Y-4.3969
X4.2Y-4.4969
X4.2Y-4.5969
X4.2Y-4.6969
X4.2Y-4.7969
X4.2Y-4.8969
X4.2Y-4.9969
X4.2Y-5.0969
X4.8Y-3.9969
X4.8Y-4.0969
X4.8Y-4.1969
X4.8Y-4.2969
X4.8Y-4.3969
X4.8Y-4.4969
X4.8Y-4.5969
X4.8Y-4.6969
X4.8Y-4.7969
X4.8Y-4.8969
X4.8Y-4.9969
X4.8Y-5.0969
T7
X3.225Y-5.7125
X3.475Y-5.6125
X4.35Y-4.2125
X4.6Y-4.1125
X7.725Y-5.7125
X7.975Y-5.6125
X5.85Y-4.9625
X6.1Y-4.8625
X6.6Y-5.7125
X6.85Y-5.6125
X8.85Y-4.9625
X9.1Y-4.8625
X6.6Y-4.2125
X6.85Y-4.1125
X5.475Y-5.7125
X5.725Y-5.6125
X9.6Y-4.2125
X9.85Y-4.1125
X5.1Y-4.9625
X5.35Y-4.8625
X9.6Y-4.9625
X9.85Y-4.8625
X5.85Y-4.2125
X6.1Y-4.1125
X4.725Y-5.7125
X4.975Y-5.6125
X8.85Y-4.2125
X9.1Y-4.1125
X4.35Y-4.9625
X4.6Y-4.8625
X3.975Y-5.7125
X4.225Y-5.6125
X3.6Y-4.2125
X3.85Y-4.1125
X8.475Y-5.7125
X8.725Y-5.6125
X8.1Y-4.2125
X8.35Y-4.1125
X3.6Y-4.9625
X3.85Y-4.8625
X6.6Y-4.9625
X6.85Y-4.8625
X8.1Y-4.9625
X8.35Y-4.8625
X7.35Y-4.2125
X7.6Y-4.1125
X2.85Y-4.9625
X3.1Y-4.8625
X9.225Y-5.7125
X9.475Y-5.6125
X7.35Y-4.9625
X7.6Y-4.8625
X2.85Y-4.2125
X3.1Y-4.1125
X5.1Y-4.2125
X5.35Y-4.1125
T8
X3.175Y-5.8125
X3.575Y-5.8125
X4.3Y-4.3125
X4.7Y-4.3125
X7.675Y-5.8125
X8.075Y-5.8125
X5.8Y-5.0625
X6.2Y-5.0625
X6.55Y-5.8125
X6.95Y-5.8125
X8.8Y-5.0625
X9.2Y-5.0625
X6.55Y-4.3125
X6.95Y-4.3125
X5.425Y-5.8125
X5.825Y-5.8125
X9.55Y-4.3125
X9.95Y-4.3125
X5.05Y-5.0625
X5.45Y-5.0625
X9.55Y-5.0625
X9.95Y-5.0625
X5.8Y-4.3125
X6.2Y-4.3125
X4.675Y-5.8125
X5.075Y-5.8125
X8.8Y-4.3125
X9.2Y-4.3125
X4.3Y-5.0625
X4.7Y-5.0625
X3.925Y-5.8125
X4.325Y-5.8125
X3.55Y-4.3125
X3.95Y-4.3125
X8.425Y-5.8125
X8.825Y-5.8125
X8.05Y-4.3125
X8.45Y-4.3125
X3.55Y-5.0625
X3.95Y-5.0625
X6.55Y-5.0625
X6.95Y-5.0625
X8.05Y-5.0625
X8.45Y-5.0625
X7.3Y-4.3125
X7.7Y-4.3125
X2.8Y-5.0625
X3.2Y-5.0625
X9.175Y-5.8125
X9.575Y-5.8125
X7.3Y-5.0625
X7.7Y-5.0625
X2.8Y-4.3125
X3.2Y-4.3125
X5.05Y-4.3125
X5.45Y-4.3125
T9
X6.28Y-6.0875
X7.22Y-6.0875
T10
X3.Y-5.0625
X9.375Y-5.8125
X7.5Y-5.0625
X3.Y-4.3125
X5.25Y-4.3125
X3.375Y-5.8125
X4.5Y-4.3125
X7.875Y-5.8125
X6.Y-5.0625
X6.28Y-5.4875
X6.75Y-5.8125
X7.22Y-5.4875
X9.Y-5.0625
X6.75Y-4.3125
X5.625Y-5.8125
X9.75Y-4.3125
X5.25Y-5.0625
X9.75Y-5.0625
X6.Y-4.3125
X4.875Y-5.8125
X9.Y-4.3125
X4.5Y-5.0625
X4.125Y-5.8125
X3.75Y-4.3125
X8.625Y-5.8125
X8.25Y-4.3125
X3.75Y-5.0625
X6.75Y-5.0625
X8.25Y-5.0625
X7.5Y-4.3125
T0
M30
